HIERARCHY
ROOT Hips
{
	OFFSET -3.958830 18.904000 13.208200
	CHANNELS 6 Xposition Yposition Zposition Zrotation Yrotation Xrotation 
	JOINT LHipJoint
	{
		OFFSET 0.000000 0.000000 0.000000
		CHANNELS 3 Zrotation Yrotation Xrotation
		JOINT LeftUpLeg
		{
			OFFSET 1.800000 -1.400000 0.085000
			CHANNELS 3 Zrotation Yrotation Xrotation
			JOINT LeftLeg
			{
				OFFSET 2.215000 -6.000000 0.000000
				CHANNELS 3 Zrotation Yrotation Xrotation
				JOINT LeftFoot
				{
					OFFSET 2.500000 -6.900000 0.000000
					CHANNELS 3 Zrotation Yrotation Xrotation
					JOINT LeftToeBase
					{
						OFFSET 0.200000 -0.500000 1.950000
						CHANNELS 3 Zrotation Yrotation Xrotation
						End Site
						{
							OFFSET 0.000000 0.000000 0.000000
						}
					}
				}
			}
		}
	}
	JOINT RHipJoint
	{
		OFFSET 0.000000 0.000000 0.000000
		CHANNELS 3 Zrotation Yrotation Xrotation
		JOINT RightUpLeg
		{
			OFFSET -1.800000 -1.400000 0.085000
			CHANNELS 3 Zrotation Yrotation Xrotation
			JOINT RightLeg
			{
				OFFSET -2.215000 -6.000000 0.000000
				CHANNELS 3 Zrotation Yrotation Xrotation
				JOINT RightFoot
				{
					OFFSET -2.500000 -6.900000 0.000000
					CHANNELS 3 Zrotation Yrotation Xrotation
					JOINT RightToeBase
					{
						OFFSET -0.200000 -0.500000 1.950000
						CHANNELS 3 Zrotation Yrotation Xrotation
						End Site
						{
							OFFSET 0.000000 0.000000 0.000000
						}
					}
				}
			}
		}
	}
	JOINT LowerBack
	{
		OFFSET 0.000000 0.000000 0.000000
		CHANNELS 3 Zrotation Yrotation Xrotation
		JOINT Spine
		{
			OFFSET -0.087000 1.940000 -0.288900
			CHANNELS 3 Zrotation Yrotation Xrotation
			JOINT Spine1
			{
				OFFSET 0.000000 1.950000 0.060000
				CHANNELS 3 Zrotation Yrotation Xrotation
				JOINT Neck
				{
					OFFSET 0.000000 0.000000 0.000000
					CHANNELS 3 Zrotation Yrotation Xrotation
					JOINT Neck1
					{
						OFFSET 0.000000 1.600000 0.340000
						CHANNELS 3 Zrotation Yrotation Xrotation
						JOINT Head
						{
							OFFSET 0.000000 1.667000 -0.240000
							CHANNELS 3 Zrotation Yrotation Xrotation
							End Site
							{
								OFFSET 0.000000 0.000000 0.000000
							}
						}
					}
				}
				JOINT LeftShoulder
				{
					OFFSET 0.000000 0.000000 0.000000
					CHANNELS 3 Zrotation Yrotation Xrotation
					JOINT LeftArm
					{
						OFFSET 2.700000 1.550000 -0.730000
						CHANNELS 3 Zrotation Yrotation Xrotation
						JOINT LeftForeArm
						{
							OFFSET 5.450000 0.000000 0.000000
							CHANNELS 3 Zrotation Yrotation Xrotation
							JOINT LeftHand
							{
								OFFSET 3.450000 0.000000 0.000000
								CHANNELS 3 Zrotation Yrotation Xrotation
								JOINT LeftHandIndex1
								{
									OFFSET 0.750000 0.000000 0.000000
									CHANNELS 3 Zrotation Yrotation Xrotation
									End Site
									{
										OFFSET 0.000000 0.000000 0.000000
									}
								}
							}
						}
					}
				}
				JOINT RightShoulder
				{
					OFFSET 0.000000 0.000000 0.000000
					CHANNELS 3 Zrotation Yrotation Xrotation
					JOINT RightArm
					{
						OFFSET -2.700000 1.550000 -0.730000
						CHANNELS 3 Zrotation Yrotation Xrotation
						JOINT RightForeArm
						{
							OFFSET -5.450000 0.000000 0.000000
							CHANNELS 3 Zrotation Yrotation Xrotation
							JOINT RightHand
							{
								OFFSET -3.450000 0.000000 0.000000
								CHANNELS 3 Zrotation Yrotation Xrotation
								JOINT RightHandIndex1
								{
									OFFSET -0.750000 0.000000 0.000000
									CHANNELS 3 Zrotation Yrotation Xrotation
									End Site
									{
										OFFSET 0.000000 0.000000 0.000000
									}
								}
							}
						}
					}
				}
			}
		}
	}
}
MOTION
Frames: 13
Frame Time: 0.016667
-0.424820 17.734590 -2.470660 0.045131 -6.738890 -7.155493 -14.502894 11.871556 3.229388 10.813974 -2.100170 -26.308978 -9.304821 5.284102 11.169005 -0.982352 3.939199 3.228782 0.747160 0.446770 0.423190 18.969903 -11.816410 2.717287 2.553802 3.534592 -11.665502 -1.304681 -5.333316 37.455403 -0.717619 -5.903831 2.324366 0.496780 0.476610 0.327730 -5.489165 1.631446 -7.453401 23.599969 -0.114963 16.981884 -13.755610 4.903974 18.310272 1.656238 -5.101562 -8.571120 -10.259372 0.624546 32.281864 -0.628310 -3.830600 -11.547820 5.596948 -34.510773 0.663689 16.363867 -44.067979 -9.303296 40.925944 -31.169695 -12.397837 -4.044457 3.034392 0.330040 0.296750 -0.157390 0.357150 -9.797477 36.838318 1.576704 -13.248482 34.264818 -10.643394 -44.525969 33.004168 -14.207168 1.958033 -1.860871 -0.211390 0.408850 -0.028740 -0.130450 
-0.411470 17.779110 -2.455280 0.050775 -6.613368 -6.894495 -14.501835 11.966754 3.180188 10.375677 -2.183070 -26.648074 -8.666171 5.635636 13.589706 -0.975142 4.080721 3.176454 0.656940 0.316820 0.357440 18.964273 -11.764492 2.799609 2.803929 4.197008 -13.122661 -1.675818 -5.271675 39.104596 -0.712350 -6.008288 2.294813 0.416240 0.503580 0.323170 -5.480049 1.493715 -7.466644 24.211786 -0.278480 17.214283 -14.316686 4.951345 17.534760 1.630496 -5.715027 -9.076818 -11.825635 0.513707 32.972256 0.023950 -4.743560 -11.107360 4.577592 -33.818825 1.126468 12.679177 -44.072392 -7.963955 45.412241 -33.923907 -15.014210 -4.029992 2.940809 0.368230 0.286840 -0.180880 0.331120 -8.842295 36.629952 2.453472 -11.069414 33.265875 -10.461262 -49.373320 37.267453 -17.229833 1.884025 -1.732592 -0.242760 0.412840 0.036390 -0.136220 
-0.405580 17.849120 -2.420680 0.152589 -5.707768 -6.880574 -14.520092 12.078777 3.109042 9.625098 -2.311395 -26.516951 -8.249889 6.238356 16.897234 -0.885264 4.315493 3.091672 0.592320 0.240720 0.306910 18.943887 -11.644590 2.941848 3.141570 5.269806 -15.248509 -1.912063 -5.419350 42.534478 -0.776807 -6.351549 2.197043 0.340870 0.503110 0.302510 -5.426349 1.276826 -7.520450 24.235921 -0.508057 17.623726 -14.794099 4.802697 16.903419 1.882424 -5.764800 -9.622151 -12.454522 0.217598 34.113757 1.042770 -5.634450 -10.771410 3.255084 -32.591109 1.814108 6.566265 -43.490789 -5.657114 53.871123 -40.353171 -21.034530 -3.937076 2.772229 0.384530 0.257750 -0.181820 0.320610 -8.027181 35.539760 3.621593 -6.258178 31.850395 -9.826826 -58.736477 43.187792 -23.945122 1.771595 -1.531705 -0.240500 0.406120 0.056660 -0.123390 
-0.404590 17.921880 -2.384190 0.465494 -2.885868 -7.660819 -14.574313 12.206191 3.061390 8.207319 -2.718859 -26.175102 -7.718672 6.990094 21.393403 -0.739409 4.708620 2.953234 0.601770 0.248680 0.321940 18.898319 -11.469223 3.057230 3.169925 6.086452 -17.205036 -1.781938 -6.018760 46.599578 -0.913850 -6.887740 2.030416 0.305740 0.464010 0.294680 -5.300140 0.900553 -7.581224 23.370163 -1.348341 18.661281 -14.640001 3.922294 16.702658 2.034083 -5.663355 -9.819064 -12.654181 -0.255484 34.663492 1.360910 -6.207990 -10.870170 1.541389 -30.789539 2.194493 1.213639 -42.706235 -3.582236 63.235800 -47.378047 -29.077185 -3.801147 2.567275 0.383800 0.219060 -0.153110 0.334420 -6.546863 33.626664 4.873774 -2.359034 30.123559 -9.332392 -70.563632 48.648954 -33.616953 1.620261 -1.265918 -0.202910 0.377760 0.014530 -0.109230 
-0.406770 17.979620 -2.348440 0.834529 0.647998 -8.459252 -14.632585 12.283168 3.007959 6.439991 -3.226086 -25.509462 -6.730583 7.468184 25.503983 -0.648129 5.129163 2.815774 0.582900 0.232890 0.296870 18.861806 -11.272731 3.161274 2.600321 6.804158 -19.561512 -0.854234 -7.294464 50.706778 -1.064926 -7.546135 1.832015 0.282650 0.462940 0.273250 -5.205860 0.550186 -7.639417 22.458957 -2.303275 19.625534 -14.806589 2.907095 16.821532 1.986300 -5.495712 -9.958598 -12.796357 -0.625770 35.183315 2.195300 -6.930500 -11.699550 0.778013 -28.293560 2.141431 -4.346599 -42.384320 -0.967736 74.035356 -52.891977 -39.263038 -3.683363 2.229522 0.411430 0.195970 -0.143120 0.343580 -5.621125 30.704104 6.311516 2.365082 28.372631 -7.828815 -87.164362 51.218733 -48.621768 1.480924 -0.921793 -0.212130 0.398370 0.014930 -0.103460 
-0.429880 18.020820 -2.311990 1.114260 4.596602 -9.259756 -14.722392 12.320936 2.983191 5.160329 -3.722519 -24.829383 -5.964915 8.028922 29.581480 -0.524447 5.684793 2.620454 0.566770 0.211490 0.294900 18.807912 -10.997437 3.291267 2.257348 7.523028 -22.036593 -0.155393 -8.870678 55.829308 -1.281693 -8.430682 1.558850 0.254040 0.445040 0.265270 -5.057443 0.125433 -7.755438 20.876024 -3.213190 20.789470 -14.492798 1.892617 17.311721 1.966501 -4.815339 -10.333612 -11.850766 -1.220239 35.495379 2.959310 -7.316610 -12.777620 0.445099 -25.656546 2.130694 -9.402691 -41.839109 1.911547 87.205383 -56.688627 -52.987923 -3.612124 1.849558 0.439990 0.171470 -0.125430 0.336450 -5.094982 27.351260 8.007283 8.026533 26.432904 -5.457918 -104.362778 50.827831 -68.605148 1.576178 -0.920466 -0.212770 0.397890 0.014580 -0.108640 
-0.440980 18.038800 -2.284630 1.234723 9.573748 -10.195563 -14.813606 12.334544 2.893088 3.344978 -4.204149 -23.655788 -4.197483 7.898067 32.824474 -0.403309 5.949904 2.534540 0.601640 0.264600 0.319370 18.760162 -10.708861 3.465446 1.204988 8.148631 -25.002604 1.549041 -11.827842 62.174924 -1.616604 -9.712901 1.175169 0.258310 0.386880 0.236930 -4.947124 -0.261053 -7.876165 19.557065 -4.509375 22.234413 -14.059152 0.474457 17.682599 1.895805 -4.386767 -10.454845 -11.186340 -2.124871 35.255095 4.043380 -7.977580 -14.622740 -0.529206 -22.866636 2.251302 -13.444342 -41.354760 4.988853 100.621063 -58.785046 -69.852470 -3.633318 1.732958 0.454600 0.116230 -0.090330 0.347290 -3.806559 23.937776 8.906312 13.033592 24.095707 -3.726454 -118.761127 51.106632 -90.174497 1.746422 -1.294403 -0.187660 0.384060 -0.035830 -0.102830 
-0.445200 18.037940 -2.262620 0.888338 13.759558 -11.693546 -14.876440 12.368666 2.752265 2.522830 -4.384674 -21.816010 -2.596459 7.783968 35.681304 -0.281299 6.303617 2.427366 0.583610 0.219640 0.325760 18.727730 -10.460701 3.667182 0.422944 8.696241 -27.264910 2.955973 -15.142818 68.577313 -1.985422 -11.088443 0.785510 0.209950 0.347930 0.225710 -4.896621 -0.569190 -8.016617 19.123607 -5.829410 24.126992 -13.641747 -0.799708 17.849070 2.013407 -4.221322 -10.963909 -11.274810 -2.231086 36.288131 5.120630 -8.331210 -15.133000 -2.341172 -21.563708 2.993368 -16.719593 -39.490824 6.590834 113.343478 -60.897475 -90.308510 -3.760484 2.146053 0.500520 0.066860 -0.067220 0.342590 -2.027731 22.218202 9.612973 16.859113 20.824767 -3.876761 -131.871719 51.385058 -110.899194 1.819119 -1.667383 -0.189640 0.355620 -0.051080 -0.113570 
-0.462830 17.991080 -2.215510 0.748758 17.216966 -12.397610 -14.951634 12.344495 2.649288 1.736302 -4.611052 -20.750349 -1.040425 7.631571 38.439404 -0.185255 6.668320 2.300392 0.584490 0.204330 0.334790 18.702589 -10.139072 3.904831 0.411618 9.505577 -30.073099 2.851360 -17.847102 75.848176 -2.371994 -12.480475 0.415902 0.187180 0.316050 0.224440 -4.819657 -0.916864 -8.168599 17.954195 -6.683367 25.017077 -13.076596 -1.849158 17.665668 1.994942 -4.233974 -11.002734 -11.595503 -2.234133 37.089162 6.218170 -8.698910 -16.385730 -3.810764 -19.998665 3.212167 -22.018918 -38.316029 7.743394 127.652030 -63.084321 -113.432874 -3.728656 2.880564 0.540030 0.027420 -0.045580 0.334350 -0.401254 20.460781 9.691441 21.252351 19.385752 -3.307441 -142.642818 51.056226 -128.143549 1.807969 -1.844012 -0.185640 0.339630 -0.054800 -0.122720 
-0.479680 17.920370 -2.162320 0.077754 19.458018 -13.401885 -14.967041 12.314878 2.437876 1.875518 -4.378573 -19.163882 0.341162 7.418574 40.035895 -0.144114 6.928565 2.220760 0.513660 0.106200 0.314040 18.728919 -9.907241 4.193517 1.522342 10.723463 -32.443821 1.634400 -20.025841 83.694798 -2.745405 -13.809269 0.105132 0.124440 0.320370 0.218850 -4.883048 -1.009820 -8.293421 18.261994 -7.712988 25.970075 -13.696318 -2.747144 17.173711 2.257179 -4.422757 -11.190988 -12.306642 -2.170024 38.253392 6.687900 -8.974940 -17.640630 -5.953494 -19.323818 3.350074 -25.866219 -35.910176 6.661742 143.677203 -64.608683 -137.021485 -3.619770 3.204373 0.597340 0.008610 -0.036360 0.296570 1.316852 19.599109 10.122222 25.862986 17.682553 -2.972433 -153.090570 50.548221 -146.645104 1.783704 -1.847764 -0.218310 0.363040 -0.004550 -0.141890 
-0.495440 17.822680 -2.100520 -0.943582 21.510992 -14.331251 -14.977030 12.282154 2.228341 2.465097 -4.135512 -17.957272 1.578761 7.141560 41.100244 -0.107482 7.076672 2.171397 0.506480 0.062710 0.347110 18.755824 -9.699864 4.469474 2.949759 11.945589 -34.630651 0.285317 -22.128921 90.939505 -3.102511 -15.004259 -0.168703 0.085520 0.284860 0.231450 -4.958740 -1.046121 -8.407597 18.931677 -8.640428 26.571195 -14.216606 -3.491492 16.503787 2.605164 -4.381195 -11.314709 -12.402172 -2.205509 39.120536 6.633200 -8.866460 -18.322850 -8.573568 -18.583067 3.534191 -29.621484 -33.142418 5.434575 159.172849 -64.466321 -159.633819 -3.493707 3.301863 0.645930 -0.025110 -0.009840 0.277700 3.297470 18.607450 10.386561 30.498444 15.759066 -2.604894 -162.860512 50.042433 -165.780097 1.791691 -1.853317 -0.218900 0.338690 -0.005660 -0.164850 
-0.518790 17.697980 -2.040860 -2.175850 23.071459 -15.512012 -15.000479 12.293835 2.000534 3.694790 -3.727394 -16.697942 2.488571 7.133543 42.127769 -0.051401 7.268698 2.112587 0.507500 0.060900 0.368670 18.760914 -9.456165 4.767876 3.954491 13.446684 -36.729677 -0.595493 -24.842082 97.859295 -3.455381 -16.190834 -0.402101 0.073870 0.264250 0.222260 -4.969598 -1.163775 -8.536507 19.236273 -9.249782 27.645627 -13.926290 -4.001272 15.458653 2.838010 -4.358018 -11.154361 -12.354077 -2.445443 39.574705 6.589910 -8.931380 -18.944900 -11.434848 -17.790713 3.616902 -33.381721 -30.237536 4.161578 174.984909 -63.874475 175.566964 -3.424202 3.261494 0.667560 -0.047450 0.014390 0.274320 5.724287 17.806986 10.181744 33.573501 13.987155 -2.980792 -171.724032 50.248112 175.377414 1.827436 -1.818564 -0.218690 0.346180 -0.021310 -0.168730 
-0.537740 17.572300 -1.997770 -3.411654 24.331818 -17.302008 -15.014429 12.312144 1.808393 5.233383 -3.400663 -15.202898 2.872888 7.406341 43.400807 0.051347 7.520672 2.019389 0.544540 0.118920 0.391230 18.758508 -9.275849 4.988677 4.702224 14.622868 -37.813617 -0.816632 -28.309532 103.609010 -3.810006 -17.315438 -0.614920 0.080480 0.216390 0.226010 -4.986731 -1.216630 -8.661252 19.558102 -10.024114 29.758260 -13.819052 -4.619232 14.030614 3.014364 -4.244703 -10.697077 -12.099239 -2.672828 40.049479 6.792330 -8.869310 -19.738790 -15.425344 -17.404246 3.426807 -34.619464 -26.997861 2.466024 -172.492868 -61.715913 154.413843 -3.398778 3.272013 0.673630 -0.083150 0.058540 0.284810 9.355336 17.228571 9.803521 35.051206 11.891794 -3.981516 -179.287052 50.151005 158.897596 1.901378 -1.815210 -0.179190 0.320060 -0.061810 -0.156680 
